<svg xmlns="http://www.w3.org/2000/svg" xmlns:xlink="http://www.w3.org/1999/xlink" width="40" zoomAndPan="magnify" viewBox="0 0 30 30.000001" height="40" preserveAspectRatio="xMidYMid meet" version="1.0"><defs><filter x="0%" y="0%" width="100%" height="100%" id="327adda75b"><feColorMatrix values="0 0 0 0 1 0 0 0 0 1 0 0 0 0 1 0 0 0 1 0" color-interpolation-filters="sRGB"/></filter><clipPath id="2a06f00b99"><path d="M 3 8.273438 L 29.515625 8.273438 L 29.515625 29.03125 L 3 29.03125 Z M 3 8.273438 " clip-rule="nonzero"/></clipPath><clipPath id="cbc9e7c446"><path d="M 4 8.273438 L 29.515625 8.273438 L 29.515625 29.03125 L 4 29.03125 Z M 4 8.273438 " clip-rule="nonzero"/></clipPath><clipPath id="41d616b1ad"><path d="M 3 9 L 29.515625 9 L 29.515625 29.03125 L 3 29.03125 Z M 3 9 " clip-rule="nonzero"/></clipPath><mask id="e01007c5db"><g filter="url(#327adda75b)"><rect x="-3" width="36" fill="#000000" y="-3" height="36.000001" fill-opacity="0.298"/></g></mask><clipPath id="d10b92fe08"><path d="M 0.503906 0.0585938 L 26.285156 0.0585938 L 26.285156 20.03125 L 0.503906 20.03125 Z M 0.503906 0.0585938 " clip-rule="nonzero"/></clipPath><clipPath id="f215dbeb2b"><rect x="0" width="27" y="0" height="21"/></clipPath><clipPath id="a7113b51b8"><path d="M 3 11 L 25 11 L 25 29.03125 L 3 29.03125 Z M 3 11 " clip-rule="nonzero"/></clipPath><clipPath id="3a60e79ac1"><path d="M 3 8.273438 L 29.515625 8.273438 L 29.515625 29.03125 L 3 29.03125 Z M 3 8.273438 " clip-rule="nonzero"/></clipPath></defs><g clip-path="url(#2a06f00b99)"><path fill="#fde7e7" d="M 29.257812 29.6875 L 29.164062 31.496094 L 22.632812 31.496094 L 22.75 29.6875 Z M 27.757812 21.75 C 27.757812 21.75 27.921875 18.796875 25.460938 15.730469 C 26.023438 12.902344 25.265625 9.109375 24.546875 8.550781 C 23.191406 8.632812 20.355469 9.636719 18.78125 12.15625 C 17.1875 11.585938 14.9375 11.433594 12.667969 12.003906 C 12.667969 12.003906 9.980469 9.15625 6.832031 8.550781 C 5.300781 9.675781 5.78125 15.160156 5.765625 15.847656 C 4.699219 17.765625 0.671875 23.621094 7.292969 27.730469 C 6.414062 30.015625 6.0625 31.464844 6.0625 31.464844 L 22.394531 31.496094 C 22.394531 31.496094 22.695312 28.285156 23.019531 26.695312 C 23.34375 25.105469 23.644531 22.441406 24.339844 22.128906 C 25.03125 21.816406 25.574219 22.558594 25.574219 22.558594 C 25.574219 22.558594 26.359375 20.617188 26.96875 22.347656 C 26.792969 21.691406 27.757812 21.75 27.757812 21.75 Z M 27.757812 21.75 " fill-opacity="1" fill-rule="nonzero"/></g><g clip-path="url(#cbc9e7c446)"><path fill="#ffcdcd" d="M 23.445312 24.21875 C 23.953125 21.621094 24.996094 21.878906 25.574219 22.558594 C 25.667969 21.761719 26.5 21.503906 26.988281 22.136719 C 28.863281 20.265625 29.164062 25.816406 29.164062 25.816406 L 29.164062 29.40625 C 29.164062 29.40625 28.742188 30.785156 25.863281 30.785156 C 23.351562 30.785156 22.632812 29.664062 22.632812 29.664062 C 22.632812 29.664062 22.933594 26.8125 23.445312 24.21875 Z M 12.75 12.039062 C 12.191406 11.199219 8.613281 8.273438 6.878906 8.554688 C 4.910156 10.847656 5.859375 15.847656 5.859375 15.847656 C 5.859375 15.847656 4.234375 18.042969 4.039062 20.164062 C 4.101562 21.726562 8.3125 24.46875 13.128906 20.398438 C 17.707031 16.53125 14.023438 11.804688 14.023438 11.804688 C 14.023438 11.804688 13.398438 11.847656 12.75 12.039062 Z M 24.15625 9.910156 L 22.632812 13.027344 C 22.632812 13.027344 23.992188 14.164062 24.351562 15.148438 C 24.710938 14.210938 24.804688 11.828125 24.15625 9.910156 Z M 24.15625 9.910156 " fill-opacity="1" fill-rule="nonzero"/></g><g clip-path="url(#41d616b1ad)"><g mask="url(#e01007c5db)"><g transform="matrix(1, 0, 0, 1, 3, 9)"><g clip-path="url(#f215dbeb2b)"><g clip-path="url(#d10b92fe08)"><path fill="#eea19c" d="M 26.164062 22.496094 C 26.164062 22.496094 26.164062 22.496094 23.351562 22.496094 C 25.539062 22.296875 25.804688 16.339844 25.804688 16.339844 Z M 5.515625 4.027344 C 5.515625 4.027344 4.308594 1.503906 4.109375 0.910156 C 3.597656 2.15625 3.515625 5.273438 3.914062 6.148438 C 4.695312 5.1875 5.515625 4.027344 5.515625 4.027344 Z M 19.40625 22.496094 C 19.664062 20.867188 20.015625 18.625 20.300781 16.820312 C 20.300781 16.820312 20.300781 16.820312 20.296875 16.820312 L 20.589844 13.578125 C 20.570312 13.601562 20.546875 13.632812 20.519531 13.671875 C 20.296875 13.996094 19.796875 14.921875 19.394531 17.125 C 17.742188 17.621094 15.5625 17.964844 12.695312 17.984375 C 1.578125 17.90625 0.824219 12.988281 0.824219 12.988281 C 0.824219 12.988281 0.621094 13.652344 1.046875 14.734375 C 0.925781 14.628906 0.828125 14.542969 0.777344 14.492188 C 1.105469 16.976562 4.308594 18.894531 4.308594 18.894531 L 3.0625 22.496094 C 3.0625 22.496094 4.371094 22.496094 5.792969 22.496094 C 6.65625 19.648438 7.703125 19.722656 7.703125 19.722656 C 9.878906 20.203125 11.96875 20.332031 12.695312 20.332031 C 13.425781 20.332031 15.515625 20.203125 17.691406 19.722656 C 17.691406 19.722656 18.226562 19.6875 18.847656 20.707031 C 18.621094 22.15625 18.546875 22.496094 18.546875 22.496094 Z M 15.722656 3.15625 L 17.003906 3.53125 C 17.003906 3.53125 17.480469 1.789062 19.574219 0.324219 C 18.113281 0.722656 16.539062 1.789062 15.722656 3.15625 Z M 5.71875 0.324219 C 7.808594 1.789062 8.289062 3.53125 8.289062 3.53125 L 9.570312 3.15625 C 8.75 1.789062 7.175781 0.722656 5.71875 0.324219 Z M 13.542969 14.019531 C 13.542969 14.019531 12.492188 14.261719 11.597656 13.992188 C 11.71875 15.03125 13.234375 15.125 13.542969 14.019531 Z M 13.542969 14.019531 " fill-opacity="1" fill-rule="nonzero"/></g></g></g></g></g><g clip-path="url(#a7113b51b8)"><path fill="#fde7e7" d="M 6.019531 11.582031 C 6.019531 11.582031 5.785156 14.835938 6.886719 16.394531 C 5.71875 17.25 3.71875 20.035156 3.773438 22.300781 C 3.335938 20.828125 3.964844 18.308594 5.710938 16.058594 C 5.535156 14.726562 5.710938 12.894531 6.019531 11.582031 Z M 23.066406 28.417969 C 23.691406 23.738281 24.757812 22.304688 24.757812 22.304688 C 23 21.824219 22.902344 26.335938 23.066406 28.417969 Z M 5.027344 25.339844 C 5.027344 25.339844 7.179688 27.324219 8.5 27.535156 C 7.964844 28.214844 6.886719 31.496094 6.886719 31.496094 L 5.929688 31.496094 L 7.179688 27.816406 C 7.179688 27.816406 5.078125 26.765625 5.027344 25.339844 Z M 5.027344 25.339844 " fill-opacity="1" fill-rule="nonzero"/></g><g clip-path="url(#3a60e79ac1)"><path fill="#545150" d="M 29.511719 31.496094 C 29.214844 31.496094 28.828125 31.496094 28.828125 31.496094 C 28.820312 30.359375 29.019531 24.476562 28.429688 22.492188 C 28.117188 21.441406 27.140625 21.945312 27.007812 22.816406 C 26.917969 22.378906 26.820312 21.90625 26.375 21.953125 C 25.824219 22.011719 25.601562 22.992188 25.601562 22.992188 C 25.601562 22.992188 25.160156 22.277344 24.757812 22.304688 C 24.121094 22.347656 23.703125 23.289062 23.398438 25.300781 C 23.226562 26.429688 22.785156 31.496094 22.785156 31.496094 L 22.214844 31.496094 C 22.214844 31.496094 22.527344 28.003906 22.628906 27.246094 L 22.632812 27.226562 L 22.714844 26.636719 C 22.894531 25.335938 23.101562 24.160156 23.296875 23.417969 C 23.808594 21.480469 24.96875 21.277344 25.488281 22.207031 C 25.757812 21.210938 26.921875 21.042969 27.046875 21.921875 C 27.085938 21.738281 27.265625 21.515625 27.519531 21.425781 C 27.417969 19.929688 26.769531 18.125 25.207031 15.964844 C 25.546875 15.242188 25.914062 11.832031 24.476562 8.835938 C 23.753906 8.835938 21.320312 9.4375 18.972656 12.011719 C 19.371094 12.152344 19.746094 12.320312 20.0625 12.53125 C 19.964844 12.535156 17.820312 11.917969 15.679688 11.917969 C 13.535156 11.917969 11.390625 12.535156 11.292969 12.53125 C 11.609375 12.320312 11.984375 12.152344 12.382812 12.011719 C 10.035156 9.4375 7.601562 8.835938 6.878906 8.835938 C 5.441406 11.832031 5.808594 15.242188 6.148438 15.964844 C 0.484375 23.785156 6.820312 26.953125 7.722656 27.664062 C 7.214844 28.71875 6.273438 31.496094 6.273438 31.496094 L 5.644531 31.496094 C 5.644531 31.496094 6.253906 29.558594 6.996094 27.828125 C 1.34375 24.476562 3.171875 18.980469 5.488281 16.058594 C 4.792969 11.921875 6.230469 8.367188 6.785156 8.273438 C 10.46875 8.984375 12.347656 11.199219 12.84375 11.867188 C 13.503906 11.679688 14.589844 11.40625 15.675781 11.40625 C 16.765625 11.40625 17.851562 11.679688 18.511719 11.867188 C 19.007812 11.199219 20.886719 8.984375 24.570312 8.273438 C 25.125 8.367188 26.5625 11.921875 25.867188 16.058594 C 26.964844 17.445312 27.953125 19.410156 28.085938 21.453125 C 28.277344 21.539062 28.480469 21.703125 28.675781 21.988281 C 29.042969 22.519531 29.101562 23.207031 29.273438 24.585938 C 29.433594 25.859375 29.511719 30.746094 29.511719 31.496094 Z M 24.15625 9.910156 C 24.15625 9.910156 23.097656 11.421875 22.324219 13.027344 C 22.84375 13.371094 23.914062 14.492188 24.351562 15.148438 C 24.558594 14.773438 23.488281 13.1875 22.941406 12.878906 C 23.511719 12.273438 24.15625 9.910156 24.15625 9.910156 Z M 7.109375 9.910156 C 7.109375 9.910156 8.164062 11.421875 8.941406 13.027344 C 8.421875 13.371094 7.351562 14.492188 6.914062 15.148438 C 6.707031 14.773438 7.777344 13.1875 8.320312 12.878906 C 7.753906 12.273438 7.109375 9.910156 7.109375 9.910156 Z M 10.054688 17.464844 C 8.875 17.746094 8.078125 18.933594 7.832031 19.917969 C 7.796875 20.070312 7.875 20.1875 8.042969 20.230469 C 8.308594 20.296875 8.796875 20.160156 8.867188 19.871094 C 8.960938 19.492188 9.121094 19.148438 9.339844 18.847656 C 9.507812 18.625 9.832031 18.234375 10.136719 18.15625 C 10.382812 18.097656 10.617188 18.5 10.742188 18.71875 L 10.773438 18.769531 C 10.988281 19.140625 11.164062 19.566406 11.292969 20.039062 C 11.335938 20.207031 11.5 20.269531 11.679688 20.269531 C 11.753906 20.269531 11.832031 20.261719 11.902344 20.238281 C 12.203125 20.15625 12.375 19.960938 12.320312 19.761719 C 11.847656 18.019531 11.066406 17.226562 10.054688 17.464844 Z M 23.429688 19.761719 C 22.957031 18.019531 22.171875 17.226562 21.164062 17.464844 C 19.984375 17.746094 19.183594 18.933594 18.941406 19.917969 C 18.917969 20.011719 18.941406 20.09375 19 20.152344 C 19.128906 20.277344 19.382812 20.257812 19.5625 20.207031 C 19.785156 20.144531 19.9375 20.015625 19.976562 19.871094 C 20.070312 19.492188 20.226562 19.148438 20.449219 18.847656 C 20.613281 18.625 20.9375 18.234375 21.242188 18.15625 C 21.488281 18.097656 21.726562 18.5 21.851562 18.71875 L 21.878906 18.769531 C 22.097656 19.140625 22.273438 19.566406 22.398438 20.039062 C 22.429688 20.144531 22.511719 20.222656 22.632812 20.253906 C 22.679688 20.265625 22.730469 20.273438 22.785156 20.273438 C 22.984375 20.273438 23.210938 20.191406 23.335938 20.0625 C 23.425781 19.972656 23.457031 19.867188 23.429688 19.761719 Z M 17.339844 20.285156 C 17.214844 20.351562 17.15625 20.570312 17.277344 20.800781 C 17.351562 20.933594 17.273438 21.074219 17.222656 21.144531 C 17.085938 21.332031 16.84375 21.445312 16.660156 21.410156 C 16.339844 21.347656 16.144531 20.96875 16.011719 20.640625 C 15.949219 20.492188 15.820312 20.398438 15.671875 20.398438 C 15.527344 20.398438 15.394531 20.492188 15.335938 20.640625 C 15.226562 20.910156 15.023438 21.40625 14.6875 21.46875 C 14.546875 21.496094 14.367188 21.425781 14.226562 21.289062 C 14.015625 21.074219 14.078125 20.796875 14.101562 20.722656 C 14.105469 20.714844 14.105469 20.710938 14.109375 20.703125 L 14.15625 20.570312 L 14.132812 20.570312 C 14.140625 20.433594 14.085938 20.316406 13.988281 20.277344 C 13.902344 20.242188 13.78125 20.269531 13.6875 20.445312 C 13.515625 20.773438 13.503906 21.164062 13.664062 21.488281 C 13.808594 21.789062 14.082031 22 14.414062 22.058594 C 14.894531 22.144531 15.324219 21.941406 15.671875 21.46875 C 15.96875 21.871094 16.328125 22.078125 16.722656 22.078125 C 16.789062 22.078125 16.859375 22.070312 16.929688 22.058594 C 17.265625 22 17.539062 21.789062 17.683594 21.488281 C 17.839844 21.164062 17.832031 20.773438 17.660156 20.445312 C 17.558594 20.253906 17.425781 20.238281 17.339844 20.285156 Z M 17.339844 20.285156 " fill-opacity="1" fill-rule="nonzero"/></g><path fill="#eea19c" d="M 26.261719 24.996094 C 26.089844 24.800781 25.394531 24.265625 24.949219 25.136719 C 24.503906 26.007812 25.71875 26.875 26.261719 26.875 C 26.800781 26.875 28.015625 26.007812 27.570312 25.136719 C 27.125 24.265625 26.433594 24.800781 26.261719 24.996094 Z M 26.6875 23.53125 C 26.6875 23.265625 26.535156 23.050781 26.351562 23.050781 C 26.164062 23.050781 26.015625 23.265625 26.015625 23.53125 C 26.015625 23.796875 26.164062 24.011719 26.351562 24.011719 C 26.535156 24.011719 26.6875 23.796875 26.6875 23.53125 Z M 27.726562 23.339844 C 27.539062 23.3125 27.351562 23.488281 27.308594 23.734375 C 27.261719 23.980469 27.378906 24.207031 27.566406 24.234375 C 27.757812 24.265625 27.945312 24.085938 27.988281 23.839844 C 28.03125 23.59375 27.914062 23.367188 27.726562 23.339844 Z M 25.011719 24.257812 C 25.203125 24.203125 25.285156 23.957031 25.199219 23.710938 C 25.113281 23.464844 24.890625 23.308594 24.699219 23.363281 C 24.511719 23.421875 24.425781 23.664062 24.511719 23.914062 C 24.597656 24.160156 24.820312 24.3125 25.011719 24.257812 Z M 25.011719 24.257812 " fill-opacity="1" fill-rule="nonzero"/></svg>