<svg xmlns="http://www.w3.org/2000/svg"  viewBox="0 0 64 64" width="64px" height="64px"><path d="M 17 2 C 15.699219 2 14.597656 2.839844 14.183594 4 L 12 4 C 9.792969 4 8 5.792969 8 8 L 8 56 C 8 58.207031 9.792969 60 12 60 L 53 60 C 54.652344 60 56 58.652344 56 57 L 56 11 C 56 9.347656 54.652344 8 53 8 L 52 8 L 52 7 C 52 5.347656 50.652344 4 49 4 L 29.816406 4 C 29.402344 2.839844 28.300781 2 27 2 Z M 17 4 L 27 4 C 27.550781 4 28 4.449219 28 5 L 28 42.359375 L 23.183594 38.828125 C 22.476563 38.308594 21.527344 38.308594 20.816406 38.828125 L 16 42.359375 L 16 5 C 16 4.449219 16.449219 4 17 4 Z M 12 6 L 14 6 L 14 42.359375 C 14 43.117188 14.417969 43.800781 15.09375 44.140625 C 15.773438 44.484375 16.574219 44.417969 17.183594 43.972656 L 22 40.4375 L 26.816406 43.972656 C 27.167969 44.230469 27.582031 44.359375 28 44.359375 C 28.304688 44.359375 28.617188 44.289063 28.90625 44.140625 C 29.582031 43.800781 30 43.117188 30 42.359375 L 30 6 L 49 6 C 49.550781 6 50 6.449219 50 7 L 50 46 C 49.449219 46 49 46.445313 49 47 L 49 49 C 49 49.554688 49.449219 50 50 50 L 50 51 C 50 51.550781 49.550781 52 49 52 L 12 52 C 11.382813 52 10.660156 52.222656 10 52.632813 L 10 50 C 10.550781 50 11 49.554688 11 49 L 11 47 C 11 46.445313 10.550781 46 10 46 L 10 8 C 10 6.898438 10.898438 6 12 6 Z M 52 10 L 53 10 C 53.550781 10 54 10.449219 54 11 L 54 57 C 54 57.550781 53.550781 58 53 58 L 12 58 C 10.898438 58 10 57.101563 10 56 C 10 54.757813 11.390625 54 12 54 L 49 54 C 50.652344 54 52 52.652344 52 51 Z M 33 20 C 32.449219 20 32 20.445313 32 21 C 32 21.554688 32.449219 22 33 22 L 43 22 C 43.550781 22 44 21.554688 44 21 C 44 20.445313 43.550781 20 43 20 Z M 33 24 C 32.449219 24 32 24.445313 32 25 C 32 25.554688 32.449219 26 33 26 L 37 26 C 37.550781 26 38 25.554688 38 25 C 38 24.445313 37.550781 24 37 24 Z M 33 28 C 32.449219 28 32 28.445313 32 29 C 32 29.554688 32.449219 30 33 30 L 40 30 C 40.550781 30 41 29.554688 41 29 C 41 28.445313 40.550781 28 40 28 Z M 15 46 C 14.449219 46 14 46.445313 14 47 L 14 49 C 14 49.554688 14.449219 50 15 50 C 15.550781 50 16 49.554688 16 49 L 16 47 C 16 46.445313 15.550781 46 15 46 Z M 20 46 C 19.449219 46 19 46.445313 19 47 L 19 49 C 19 49.554688 19.449219 50 20 50 C 20.550781 50 21 49.554688 21 49 L 21 47 C 21 46.445313 20.550781 46 20 46 Z M 25 46 C 24.449219 46 24 46.445313 24 47 L 24 49 C 24 49.554688 24.449219 50 25 50 C 25.550781 50 26 49.554688 26 49 L 26 47 C 26 46.445313 25.550781 46 25 46 Z M 30 46 C 29.449219 46 29 46.445313 29 47 L 29 49 C 29 49.554688 29.449219 50 30 50 C 30.550781 50 31 49.554688 31 49 L 31 47 C 31 46.445313 30.550781 46 30 46 Z M 35 46 C 34.449219 46 34 46.445313 34 47 L 34 49 C 34 49.554688 34.449219 50 35 50 C 35.550781 50 36 49.554688 36 49 L 36 47 C 36 46.445313 35.550781 46 35 46 Z M 40 46 C 39.449219 46 39 46.445313 39 47 L 39 49 C 39 49.554688 39.449219 50 40 50 C 40.550781 50 41 49.554688 41 49 L 41 47 C 41 46.445313 40.550781 46 40 46 Z M 45 46 C 44.449219 46 44 46.445313 44 47 L 44 49 C 44 49.554688 44.449219 50 45 50 C 45.550781 50 46 49.554688 46 49 L 46 47 C 46 46.445313 45.550781 46 45 46 Z"/></svg>