<svg xmlns="http://www.w3.org/2000/svg"  viewBox="0 0 64 64" width="64px" height="64px"><path d="M 36.441406 4 A 1.0001 1.0001 0 0 0 35.554688 4.6738281 L 31.279297 17.023438 C 24.494987 17.14853 18.30874 19.003552 13.429688 22.025391 C 12.10227 20.829723 10.424671 20 8.5 20 C 4.36961 20 1 23.36961 1 27.5 C 1 29.861903 2.2108265 31.860591 3.9238281 33.234375 C 3.3519684 34.918702 3 36.675601 3 38.5 C 3 44.539804 6.3468448 49.960083 11.609375 53.810547 C 16.871905 57.661011 24.069155 60 32 60 C 39.930845 60 47.128095 57.661011 52.390625 53.810547 C 57.653155 49.960083 61 44.539804 61 38.5 C 61 36.675601 60.648032 34.918702 60.076172 33.234375 C 61.789174 31.860591 63 29.861903 63 27.5 C 63 23.36961 59.63039 20 55.5 20 C 53.575329 20 51.89773 20.829723 50.570312 22.025391 C 45.852225 19.103246 39.909886 17.27866 33.388672 17.046875 L 37.115234 6.2792969 L 45.083984 9.1152344 C 45.031905 9.4031439 45 9.6976953 45 10 C 45 12.749579 47.250421 15 50 15 C 52.749579 15 55 12.749579 55 10 C 55 7.2504209 52.749579 5 50 5 C 48.261634 5 46.726838 5.9013251 45.830078 7.2578125 L 36.835938 4.0585938 A 1.0001 1.0001 0 0 0 36.541016 4 A 1.0001 1.0001 0 0 0 36.441406 4 z M 50 7 C 51.668699 7 53 8.3313011 53 10 C 53 11.668699 51.668699 13 50 13 C 48.331301 13 47 11.668699 47 10 C 47 8.3313011 48.331301 7 50 7 z M 32 19 C 38.976014 19 45.32148 20.921752 50.089844 24.035156 A 1.0001 1.0001 0 0 0 51.384766 23.859375 C 52.395352 22.718117 53.855086 22 55.5 22 C 58.54961 22 61 24.45039 61 27.5 C 61 29.462807 59.975597 31.168658 58.435547 32.144531 A 1.0001 1.0001 0 0 0 58.037109 33.34375 C 58.663132 34.991523 59 36.715635 59 38.5 C 59 43.803196 56.079704 48.63348 51.208984 52.197266 C 46.338265 55.761052 39.536155 58 32 58 C 24.463845 58 17.661735 55.761052 12.791016 52.197266 C 7.9202954 48.63348 5 43.803196 5 38.5 C 5 36.715635 5.3368684 34.991523 5.9628906 33.34375 A 1.0001 1.0001 0 0 0 5.5644531 32.144531 C 4.0244025 31.168658 3 29.462807 3 27.5 C 3 24.45039 5.45039 22 8.5 22 C 10.144914 22 11.604648 22.718117 12.615234 23.859375 A 1.0001 1.0001 0 0 0 13.910156 24.035156 C 18.67852 20.921752 25.023986 19 32 19 z M 32 21 C 31.448 21 31 21.448 31 22 L 31 24 C 31 24.552 31.448 25 32 25 C 32.552 25 33 24.552 33 24 L 33 22 C 33 21.448 32.552 21 32 21 z M 26.482422 21.435547 C 25.937422 21.522547 25.565344 22.035078 25.652344 22.580078 L 25.966797 24.556641 C 26.044797 25.048641 26.470125 25.398438 26.953125 25.398438 C 27.005125 25.398438 27.057328 25.395719 27.111328 25.386719 C 27.656328 25.299719 28.028406 24.785234 27.941406 24.240234 L 27.626953 22.265625 C 27.539953 21.719625 27.023422 21.343547 26.482422 21.435547 z M 37.519531 21.435547 C 36.975531 21.348547 36.460047 21.721625 36.373047 22.265625 L 36.058594 24.240234 C 35.971594 24.785234 36.342672 25.299719 36.888672 25.386719 C 36.941672 25.395719 36.994875 25.398438 37.046875 25.398438 C 37.529875 25.398438 37.954203 25.048641 38.033203 24.556641 L 38.349609 22.580078 C 38.436609 22.035078 38.065531 21.522547 37.519531 21.435547 z M 21.472656 22.722656 C 21.343234 22.713703 21.209828 22.730141 21.080078 22.775391 C 20.557078 22.955391 20.278984 23.524875 20.458984 24.046875 L 21.109375 25.9375 C 21.252375 26.3515 21.639688 26.611328 22.054688 26.611328 C 22.162688 26.611328 22.273859 26.595594 22.380859 26.558594 C 22.903859 26.378594 23.181953 25.809109 23.001953 25.287109 L 22.351562 23.396484 C 22.216562 23.004984 21.860922 22.749516 21.472656 22.722656 z M 42.523438 22.722656 C 42.133297 22.749656 41.781937 23.003031 41.648438 23.394531 L 41 25.285156 C 40.82 25.807156 41.097141 26.376641 41.619141 26.556641 C 41.727141 26.593641 41.838313 26.611328 41.945312 26.611328 C 42.360312 26.611328 42.748625 26.351547 42.890625 25.935547 L 43.539062 24.044922 C 43.719062 23.522922 43.441922 22.953437 42.919922 22.773438 C 42.787672 22.728438 42.653484 22.713656 42.523438 22.722656 z M 16.34375 24.980469 C 16.215078 24.997719 16.0875 25.041078 15.96875 25.111328 C 15.49275 25.392328 15.334234 26.004469 15.615234 26.480469 L 16.632812 28.203125 C 16.818813 28.519125 17.152141 28.695312 17.494141 28.695312 C 17.667141 28.695312 17.841953 28.649641 18.001953 28.556641 C 18.477953 28.275641 18.636469 27.6635 18.355469 27.1875 L 17.339844 25.464844 C 17.128344 25.107094 16.729766 24.928719 16.34375 24.980469 z M 47.65625 24.980469 C 47.270562 24.928672 46.872859 25.105891 46.662109 25.462891 L 45.644531 27.185547 C 45.364531 27.661547 45.522047 28.275641 45.998047 28.556641 C 46.157047 28.651641 46.332859 28.695312 46.505859 28.695312 C 46.847859 28.695312 47.181188 28.519125 47.367188 28.203125 L 48.384766 26.480469 C 48.664766 26.004469 48.50725 25.390375 48.03125 25.109375 C 47.913 25.039125 47.784813 24.997734 47.65625 24.980469 z M 21 31 C 18.250421 31 16 33.250421 16 36 C 16 38.749579 18.250421 41 21 41 C 23.749579 41 26 38.749579 26 36 C 26 33.250421 23.749579 31 21 31 z M 43 31 C 40.250421 31 38 33.250421 38 36 C 38 38.749579 40.250421 41 43 41 C 45.749579 41 48 38.749579 48 36 C 48 33.250421 45.749579 31 43 31 z M 21 33 C 22.668699 33 24 34.331301 24 36 C 24 37.668699 22.668699 39 21 39 C 19.331301 39 18 37.668699 18 36 C 18 34.331301 19.331301 33 21 33 z M 43 33 C 44.668699 33 46 34.331301 46 36 C 46 37.668699 44.668699 39 43 39 C 41.331301 39 40 37.668699 40 36 C 40 34.331301 41.331301 33 43 33 z M 20.001953 45.988281 A 1.0001 1.0001 0 0 0 19.21875 47.625 C 19.21875 47.625 23.583333 53 32 53 C 40.416667 53 44.78125 47.625 44.78125 47.625 A 1.0004882 1.0004882 0 1 0 43.21875 46.375 C 43.21875 46.375 39.583333 51 32 51 C 24.416667 51 20.78125 46.375 20.78125 46.375 A 1.0001 1.0001 0 0 0 20.001953 45.988281 z"/></svg>